<svg xmlns="http://www.w3.org/2000/svg" viewBox="0 0 256 257" fill="none">
  <path d="M255.153 37.938L134.897 252.767C132.425 257.18 126.09 257.224 123.556 252.846L.846 38.08C-1.892 33.288 2.195 27.377 7.671 28.253L128.438 47.586C129.205 47.709 129.985 47.708 130.752 47.584L248.278 28.249C253.738 27.35 257.85 33.217 255.153 37.938Z" fill="#41D1FF"/>
  <path d="M185.432 1.052L96.44 18.494C94.977 18.781 93.875 20.011 93.75 21.497L88.274 86.787C88.145 88.323 89.559 89.519 91.057 89.169L115.825 83.385C118.143 82.844 120.235 84.886 119.639 87.19L112.282 115.595C111.687 117.892 113.773 119.931 116.086 119.401L131.393 115.891C133.707 115.361 135.794 117.404 135.192 119.701L123.496 164.294C122.764 167.082 126.473 168.603 127.871 166.087L128.804 164.408L201.311 48.063C202.527 45.945 200.697 43.387 198.31 43.845L172.814 48.743C170.413 49.205 168.367 46.972 169.099 44.632L185.756 10.965C186.491 8.620 184.438 6.382 182.037 6.855L157.978 11.596C156.471 11.893 155.042 10.859 154.898 9.328L152.227 -19.117C151.983 -21.715 149.306 -23.234 147.043 -22.05L124.278 -10.14" fill="#BD34FE"/>
</svg>
